<svg width="25" height="27" viewBox="0 0 25 27" fill="none" xmlns="http://www.w3.org/2000/svg">
<path d="M12.1217 6.55V10.7125M12.1467 1C7.5467 1 3.8217 4.725 3.8217 9.325V11.95C3.8217 12.8 3.4717 14.075 3.0342 14.8L1.4467 17.45C0.471698 19.0875 1.1467 20.9125 2.9467 21.5125C8.9233 23.5 15.3826 23.5 21.3592 21.5125C21.7536 21.3809 22.1133 21.1625 22.4119 20.8732C22.7105 20.5839 22.9403 20.2313 23.0843 19.8413C23.2283 19.4513 23.2828 19.0339 23.2439 18.62C23.2049 18.2061 23.0734 17.8063 22.8592 17.45L21.2717 14.8C20.8342 14.075 20.4842 12.7875 20.4842 11.95V9.325C20.4717 4.75 16.7217 1 12.1467 1Z" stroke="#8E8E8E" stroke-width="1.5" stroke-miterlimit="10" stroke-linecap="round"/>
<path d="M16.2844 22.0249C16.2844 24.3124 14.4094 26.1874 12.1219 26.1874C10.9844 26.1874 9.93435 25.7124 9.18435 24.9624C8.43435 24.2124 7.95935 23.1624 7.95935 22.0249" stroke="#8E8E8E" stroke-width="1.5" stroke-miterlimit="10"/>
</svg>
