<svg width="16" height="16" viewBox="0 0 16 16" fill="none" xmlns="http://www.w3.org/2000/svg">
<path d="M8.78673 7.90673C8.52006 7.90673 8.28006 7.76006 8.16673 7.52006L7.20006 5.5934L6.92006 6.1134C6.76673 6.40006 6.46006 6.58006 6.1334 6.58006H5.64673C5.3734 6.58006 5.14673 6.3534 5.14673 6.08006C5.14673 5.80673 5.3734 5.58006 5.64673 5.58006H6.0734L6.60006 4.60673C6.72673 4.38006 6.98006 4.22673 7.22006 4.24006C7.48006 4.24006 7.7134 4.3934 7.8334 4.62006L8.78673 6.52673L9.0134 6.06673C9.16673 5.76006 9.46673 5.5734 9.8134 5.5734H10.3534C10.6267 5.5734 10.8534 5.80006 10.8534 6.0734C10.8534 6.34673 10.6267 6.5734 10.3534 6.5734H9.88006L9.40673 7.5134C9.28673 7.76006 9.0534 7.90673 8.78673 7.90673Z" fill="#157AFF"/>
<path d="M1.83321 12.4334C1.55988 12.4334 1.33321 12.2067 1.33321 11.9334V8.13337C1.29988 6.3267 1.97321 4.62003 3.22655 3.34003C4.47988 2.0667 6.15988 1.3667 7.96655 1.3667C11.6599 1.3667 14.6665 4.37337 14.6665 8.0667V11.8667C14.6665 12.14 14.4399 12.3667 14.1665 12.3667C13.8932 12.3667 13.6665 12.14 13.6665 11.8667V8.0667C13.6665 4.9267 11.1132 2.3667 7.96655 2.3667C6.42655 2.3667 4.99988 2.96003 3.93988 4.04003C2.87321 5.1267 2.30655 6.57337 2.33321 8.12003V11.9267C2.33321 12.2067 2.11321 12.4334 1.83321 12.4334Z" fill="#157AFF"/>
<path d="M3.95992 8.2998H3.87325C2.47325 8.2998 1.33325 9.43981 1.33325 10.8398V12.0931C1.33325 13.4931 2.47325 14.6331 3.87325 14.6331H3.95992C5.35992 14.6331 6.49992 13.4931 6.49992 12.0931V10.8398C6.49992 9.43981 5.35992 8.2998 3.95992 8.2998ZM12.1266 8.2998H12.0399C10.6399 8.2998 9.49992 9.43981 9.49992 10.8398V12.0931C9.49992 13.4931 10.6399 14.6331 12.0399 14.6331H12.1266C13.5266 14.6331 14.6666 13.4931 14.6666 12.0931V10.8398C14.6666 9.43981 13.5266 8.2998 12.1266 8.2998Z" fill="#157AFF"/>
</svg>
