<svg width="30" height="30" viewBox="0 0 30 30" fill="none" xmlns="http://www.w3.org/2000/svg">
<path fill-rule="evenodd" clip-rule="evenodd" d="M27.1876 -0.000488281H2.81262C1.26575 -0.000488281 -0.000488281 1.2657 -0.000488281 2.81262V27.1876C-0.000488281 28.7345 1.26575 30.0006 2.81262 30.0006H27.1876C28.7345 30.0006 30.0007 28.7345 30.0007 27.1876V2.81257C30.0007 1.2657 28.7345 -0.000488281 27.1876 -0.000488281ZM17.0541 8.14648H20.4829V4.03451H17.0541C14.4138 4.03451 12.2595 6.18818 12.2595 8.83189V10.887H9.51786V15.0001H12.259V25.9656H16.3715V15.0001H19.7969L20.4829 10.887H16.3714V8.83189C16.3714 8.45979 16.6854 8.14592 17.0541 8.14592V8.14648Z" fill="#157AFF"/>
</svg>
