<?xml version="1.0" encoding="UTF-8"?>
<svg id="Layer_2" data-name="Layer 2" xmlns="http://www.w3.org/2000/svg" viewBox="0 0 97.81 101.29">
  <defs>
    <style>
      .cls-1 {
        fill: #3f3d56;
      }

      .cls-2 {
        isolation: isolate;
        opacity: .2;
      }

      .cls-3 {
        fill: #157aff;
      }
    </style>
  </defs>
  <g id="Layer_1-2" data-name="Layer 1">
    <g>
      <path class="cls-3" d="m88.28,28.12v69.37c0,1.9-1.55,3.44-3.45,3.45H10.19c-1.9,0-3.44-1.55-3.45-3.45V28.12c0-1.9,1.54-3.45,3.45-3.45h74.64c1.9,0,3.45,1.54,3.45,3.45Z"/>
      <path class="cls-1" d="m52.78,101.29h-10.55c-1.88.02-3.42-1.48-3.45-3.36V25.97c.03-1.88,1.57-3.38,3.45-3.36h10.55c1.88-.02,3.42,1.48,3.45,3.36v71.96c-.03,1.88-1.57,3.38-3.45,3.36Z"/>
      <path class="cls-1" d="m45.34,2.96c5.42,4.69,3.71,15.55,3.71,15.55,0,0-10.5,3.25-15.92-1.44s-3.71-15.55-3.71-15.55c0,0,10.5-3.25,15.92,1.44Z"/>
      <path class="cls-1" d="m63.34,16.17c-4.67,5.44-15.54,3.76-15.54,3.76,0,0-3.28-10.49,1.39-15.93S64.73.24,64.73.24c0,0,3.28,10.49-1.39,15.93Z"/>
      <path class="cls-2" d="m88.28,28.12v11.68l-81.54-.34v-11.33c0-1.9,1.54-3.45,3.45-3.45h74.64c1.9,0,3.45,1.54,3.45,3.45Z"/>
      <path class="cls-3" d="m97.06,35.22c-.65.86-1.67,1.36-2.76,1.36l-90.87-.38C1.53,36.19,0,34.64,0,32.74H0l.04-10.14c0-1.9,1.56-3.44,3.46-3.43h0l90.87.38c1.9,0,3.44,1.56,3.43,3.46h0l-.04,10.14c0,.75-.25,1.48-.71,2.08Z"/>
      <rect class="cls-1" x="38.56" y="18.94" width="18.25" height="17.44" transform="translate(19.84 75.24) rotate(-89.77)"/>
    </g>
  </g>
</svg>