<svg width="24" height="24" viewBox="0 0 24 24" fill="none" xmlns="http://www.w3.org/2000/svg">
<path d="M13 16.7451C13 16.3311 12.664 15.9951 12.25 15.9951H2.75C2.336 15.9951 2 16.3311 2 16.7451C2 17.1591 2.336 17.4951 2.75 17.4951H12.25C12.664 17.4951 13 17.1591 13 16.7451ZM22 11.7451C22 11.3311 21.664 10.9951 21.25 10.9951H2.75C2.336 10.9951 2 11.3311 2 11.7451C2 12.1591 2.336 12.4951 2.75 12.4951H21.25C21.664 12.4951 22 12.1591 22 11.7451ZM18 6.74512C18 6.33112 17.664 5.99512 17.25 5.99512H2.75C2.336 5.99512 2 6.33112 2 6.74512C2 7.15912 2.336 7.49512 2.75 7.49512H17.25C17.664 7.49512 18 7.15912 18 6.74512Z" fill="#747274"/>
</svg>
