<svg width="30" height="30" viewBox="0 0 30 30" fill="none" xmlns="http://www.w3.org/2000/svg">
<path fill-rule="evenodd" clip-rule="evenodd" d="M27.1875 0H2.8125C1.26563 0 0 1.26562 0 2.8125V27.1875C0 28.7344 1.26563 30 2.8125 30H27.1875C28.7343 30 30 28.7344 30 27.1875V2.8125C30 1.26562 28.7343 0 27.1875 0ZM10.5492 4.56319H19.4513C22.7943 4.56319 25.5277 7.26277 25.5277 10.5608V19.4392C25.5277 22.7377 22.7943 25.4368 19.4513 25.4368H10.5492C7.20684 25.4368 4.47291 22.7377 4.47291 19.4392V10.5608C4.47291 7.26272 7.20684 4.56319 10.5492 4.56319ZM14.9435 9.36441C18.1918 9.36441 20.8283 12.0003 20.8283 15.2491C20.8283 18.498 18.1918 21.1333 14.9436 21.1333C11.6942 21.1333 9.05878 18.498 9.05878 15.2491C9.05878 12.0003 11.6941 9.36441 14.9435 9.36441ZM14.9435 11.352C17.0945 11.352 18.8407 13.0971 18.8407 15.2491C18.8407 17.4006 17.0945 19.1462 14.9435 19.1462C12.7915 19.1462 11.0459 17.4006 11.0459 15.2491C11.0459 13.0971 12.7915 11.352 14.9435 11.352ZM20.6367 8.54888C21.1643 8.54888 21.5918 8.97628 21.5918 9.50391C21.5918 10.0315 21.1643 10.4595 20.6367 10.4595C20.109 10.4595 19.6811 10.0315 19.6811 9.50391C19.6811 8.97628 20.109 8.54888 20.6367 8.54888ZM11.2762 6.26841H18.7244C21.5209 6.26841 23.808 8.54391 23.808 11.3248V18.8102C23.808 21.5911 21.5209 23.8666 18.7244 23.8666H11.2762C8.48025 23.8666 6.19256 21.5911 6.19256 18.8102V11.3249C6.19256 8.54386 8.48025 6.26841 11.2762 6.26841H11.2762Z" fill="#157AFF"/>
</svg>
