<svg width="189" height="40" viewBox="0 0 189 40" fill="none" xmlns="http://www.w3.org/2000/svg">
<path d="M56.1009 12.4545H60.4545L64.1477 21.4602H64.3182L68.0114 12.4545H72.3651V27H68.9418V18.0653H68.821L65.3267 26.9077H63.1392L59.6449 18.0156H59.5241V27H56.1009V12.4545ZM77.6332 27.1847C76.9371 27.1847 76.3192 27.0687 75.7795 26.8366C75.2444 26.5999 74.8207 26.2448 74.5082 25.7713C74.2004 25.2931 74.0465 24.6941 74.0465 23.9744C74.0465 23.3684 74.1531 22.857 74.3661 22.4403C74.5792 22.0237 74.8728 21.6851 75.2468 21.4247C75.6209 21.1643 76.0517 20.9678 76.5394 20.8352C77.0271 20.6979 77.5479 20.6056 78.1019 20.5582C78.7222 20.5014 79.2217 20.4422 79.6005 20.3807C79.9793 20.3144 80.2539 20.2221 80.4244 20.1037C80.5996 19.9806 80.6871 19.8078 80.6871 19.5852V19.5497C80.6871 19.1851 80.5617 18.9034 80.3107 18.7045C80.0598 18.5057 79.7212 18.4062 79.2951 18.4062C78.8358 18.4062 78.4665 18.5057 78.1871 18.7045C77.9078 18.9034 77.7302 19.178 77.6545 19.5284L74.4513 19.4148C74.546 18.7519 74.7899 18.16 75.1829 17.6392C75.5806 17.1136 76.1251 16.7017 76.8164 16.4034C77.5124 16.1004 78.3481 15.9489 79.3235 15.9489C80.0195 15.9489 80.6611 16.0317 81.2482 16.1974C81.8353 16.3584 82.3467 16.5952 82.7823 16.9077C83.2179 17.2154 83.5541 17.5942 83.7908 18.044C84.0323 18.4938 84.1531 19.0076 84.1531 19.5852V27H80.886V25.4801H80.8008C80.6067 25.8494 80.3581 26.1619 80.055 26.4176C79.7567 26.6733 79.404 26.8651 78.9968 26.9929C78.5943 27.1207 78.1398 27.1847 77.6332 27.1847ZM78.7056 24.9119C79.0797 24.9119 79.4158 24.8362 79.7141 24.6847C80.0172 24.5331 80.2586 24.3248 80.4386 24.0597C80.6185 23.7898 80.7085 23.4773 80.7085 23.1222V22.0852C80.609 22.1373 80.4883 22.1847 80.3462 22.2273C80.2089 22.2699 80.0574 22.3101 79.8917 22.348C79.726 22.3859 79.5555 22.419 79.3803 22.4474C79.2051 22.4759 79.0371 22.5019 78.8761 22.5256C78.5494 22.5777 78.27 22.6581 78.038 22.767C77.8107 22.8759 77.6355 23.018 77.5124 23.1932C77.3941 23.3636 77.3349 23.5672 77.3349 23.804C77.3349 24.1638 77.4627 24.4384 77.7184 24.6278C77.9788 24.8172 78.3079 24.9119 78.7056 24.9119ZM86.2766 31.0909V16.0909H89.7141V17.9588H89.8207C89.9627 17.6274 90.1639 17.3078 90.4244 17C90.6895 16.6922 91.0257 16.4413 91.4329 16.2472C91.8448 16.0483 92.3372 15.9489 92.9102 15.9489C93.6677 15.9489 94.3756 16.1477 95.0337 16.5455C95.6966 16.9432 96.2317 17.5563 96.6388 18.3849C97.046 19.2135 97.2496 20.2694 97.2496 21.5526C97.2496 22.7884 97.0531 23.8229 96.6602 24.6562C96.2719 25.4896 95.7463 26.1146 95.0835 26.5312C94.4253 26.9479 93.6938 27.1562 92.8888 27.1562C92.3396 27.1562 91.8638 27.0663 91.4613 26.8864C91.0588 26.7064 90.7203 26.4697 90.4457 26.1761C90.1758 25.8826 89.9674 25.5677 89.8207 25.2315H89.7496V31.0909H86.2766ZM89.6786 21.5455C89.6786 22.1326 89.7567 22.6439 89.913 23.0795C90.074 23.5152 90.3036 23.8537 90.6019 24.0952C90.9049 24.3319 91.2672 24.4503 91.6886 24.4503C92.1147 24.4503 92.4769 24.3319 92.7752 24.0952C93.0735 23.8537 93.2984 23.5152 93.4499 23.0795C93.6062 22.6439 93.6843 22.1326 93.6843 21.5455C93.6843 20.9583 93.6062 20.4493 93.4499 20.0185C93.2984 19.5876 93.0735 19.2538 92.7752 19.017C92.4817 18.7803 92.1194 18.6619 91.6886 18.6619C91.2624 18.6619 90.9002 18.7779 90.6019 19.0099C90.3036 19.242 90.074 19.5734 89.913 20.0043C89.7567 20.4351 89.6786 20.9489 89.6786 21.5455ZM99.0696 31.0909V16.0909H102.507V17.9588H102.614C102.756 17.6274 102.957 17.3078 103.217 17C103.482 16.6922 103.819 16.4413 104.226 16.2472C104.638 16.0483 105.13 15.9489 105.703 15.9489C106.461 15.9489 107.169 16.1477 107.827 16.5455C108.49 16.9432 109.025 17.5563 109.432 18.3849C109.839 19.2135 110.043 20.2694 110.043 21.5526C110.043 22.7884 109.846 23.8229 109.453 24.6562C109.065 25.4896 108.539 26.1146 107.876 26.5312C107.218 26.9479 106.487 27.1562 105.682 27.1562C105.133 27.1562 104.657 27.0663 104.254 26.8864C103.852 26.7064 103.513 26.4697 103.239 26.1761C102.969 25.8826 102.76 25.5677 102.614 25.2315H102.543V31.0909H99.0696ZM102.472 21.5455C102.472 22.1326 102.55 22.6439 102.706 23.0795C102.867 23.5152 103.097 23.8537 103.395 24.0952C103.698 24.3319 104.06 24.4503 104.482 24.4503C104.908 24.4503 105.27 24.3319 105.568 24.0952C105.866 23.8537 106.091 23.5152 106.243 23.0795C106.399 22.6439 106.477 22.1326 106.477 21.5455C106.477 20.9583 106.399 20.4493 106.243 20.0185C106.091 19.5876 105.866 19.2538 105.568 19.017C105.275 18.7803 104.912 18.6619 104.482 18.6619C104.055 18.6619 103.693 18.7779 103.395 19.0099C103.097 19.242 102.867 19.5734 102.706 20.0043C102.55 20.4351 102.472 20.9489 102.472 21.5455ZM115.336 12.4545V27H111.863V12.4545H115.336ZM122.646 27.206C121.504 27.206 120.52 26.9811 119.691 26.5312C118.867 26.0767 118.233 25.4304 117.788 24.5923C117.347 23.7495 117.127 22.7481 117.127 21.5881C117.127 20.4612 117.35 19.4763 117.795 18.6335C118.24 17.786 118.867 17.1278 119.677 16.6591C120.487 16.1856 121.441 15.9489 122.539 15.9489C123.316 15.9489 124.026 16.0696 124.67 16.3111C125.314 16.5526 125.87 16.91 126.339 17.3835C126.808 17.857 127.172 18.4418 127.433 19.1378C127.693 19.8291 127.823 20.6222 127.823 21.517V22.3835H118.342V20.3665H124.592C124.587 19.9972 124.499 19.6681 124.329 19.3793C124.158 19.0904 123.924 18.8655 123.626 18.7045C123.332 18.5388 122.994 18.456 122.61 18.456C122.222 18.456 121.874 18.5436 121.566 18.7188C121.258 18.8892 121.014 19.1236 120.835 19.4219C120.655 19.7154 120.56 20.0492 120.55 20.4233V22.4759C120.55 22.9209 120.638 23.3116 120.813 23.6477C120.988 23.9792 121.237 24.2372 121.559 24.4219C121.881 24.6065 122.264 24.6989 122.71 24.6989C123.017 24.6989 123.297 24.6562 123.548 24.571C123.799 24.4858 124.014 24.3603 124.194 24.1946C124.374 24.0289 124.509 23.8253 124.599 23.5838L127.788 23.6761C127.655 24.3911 127.364 25.0137 126.914 25.544C126.469 26.0696 125.884 26.4792 125.16 26.7727C124.435 27.0616 123.597 27.206 122.646 27.206ZM129.597 12.4545H133.951L137.644 21.4602H137.814L141.507 12.4545H145.861V27H142.438V18.0653H142.317L138.823 26.9077H136.635L133.141 18.0156H133.02V27H129.597V12.4545ZM155.092 22.2912V16.0909H158.558V27H155.249V24.9688H155.135C154.893 25.6364 154.482 26.1667 153.899 26.5597C153.321 26.9479 152.623 27.142 151.804 27.142C151.061 27.142 150.407 26.9716 149.844 26.6307C149.28 26.2898 148.842 25.8139 148.53 25.2031C148.217 24.5876 148.059 23.8679 148.054 23.044V16.0909H151.527V22.3622C151.532 22.9541 151.688 23.4205 151.996 23.7614C152.304 24.1023 152.723 24.2727 153.253 24.2727C153.598 24.2727 153.909 24.197 154.183 24.0455C154.463 23.8892 154.683 23.6643 154.844 23.3707C155.009 23.0724 155.092 22.7126 155.092 22.2912ZM170.293 19.4219L167.104 19.5071C167.071 19.2798 166.981 19.0786 166.834 18.9034C166.687 18.7235 166.496 18.5838 166.259 18.4844C166.027 18.3802 165.757 18.3281 165.449 18.3281C165.047 18.3281 164.703 18.4086 164.419 18.5696C164.14 18.7306 164.003 18.9484 164.007 19.223C164.003 19.4361 164.088 19.6207 164.263 19.777C164.443 19.9332 164.763 20.0587 165.222 20.1534L167.324 20.5511C168.413 20.7595 169.223 21.1051 169.753 21.5881C170.288 22.071 170.558 22.7102 170.563 23.5057C170.558 24.2538 170.336 24.9048 169.895 25.4588C169.46 26.0128 168.863 26.4437 168.105 26.7514C167.348 27.0545 166.481 27.206 165.506 27.206C163.948 27.206 162.72 26.8864 161.82 26.2472C160.925 25.6032 160.414 24.7415 160.286 23.6619L163.716 23.5767C163.792 23.9744 163.989 24.2775 164.306 24.4858C164.623 24.6941 165.028 24.7983 165.52 24.7983C165.965 24.7983 166.328 24.7154 166.607 24.5497C166.886 24.384 167.028 24.1638 167.033 23.8892C167.028 23.643 166.919 23.4465 166.706 23.2997C166.493 23.1482 166.159 23.0298 165.705 22.9446L163.801 22.5824C162.708 22.3835 161.893 22.0166 161.358 21.4815C160.823 20.9418 160.558 20.2552 160.563 19.4219C160.558 18.6927 160.752 18.0701 161.145 17.554C161.538 17.0331 162.097 16.6354 162.821 16.3608C163.546 16.0862 164.4 15.9489 165.385 15.9489C166.863 15.9489 168.027 16.259 168.88 16.8793C169.732 17.4948 170.203 18.3423 170.293 19.4219ZM172.273 27V16.0909H175.746V27H172.273ZM174.013 14.8196C173.525 14.8196 173.106 14.6586 172.756 14.3366C172.405 14.0099 172.23 13.617 172.23 13.1577C172.23 12.7031 172.405 12.3149 172.756 11.9929C173.106 11.6662 173.525 11.5028 174.013 11.5028C174.505 11.5028 174.924 11.6662 175.27 11.9929C175.62 12.3149 175.795 12.7031 175.795 13.1577C175.795 13.617 175.62 14.0099 175.27 14.3366C174.924 14.6586 174.505 14.8196 174.013 14.8196ZM183.049 27.206C181.898 27.206 180.911 26.9692 180.087 26.4957C179.268 26.0223 178.638 25.3641 178.198 24.5213C177.757 23.6738 177.537 22.6937 177.537 21.581C177.537 20.4635 177.757 19.4834 178.198 18.6406C178.643 17.7931 179.275 17.1326 180.094 16.6591C180.918 16.1856 181.9 15.9489 183.042 15.9489C184.05 15.9489 184.928 16.1312 185.676 16.4957C186.429 16.8603 187.016 17.3764 187.438 18.044C187.864 18.7069 188.089 19.4858 188.113 20.3807H184.867C184.801 19.822 184.611 19.384 184.299 19.0668C183.991 18.7495 183.588 18.5909 183.091 18.5909C182.689 18.5909 182.336 18.7045 182.033 18.9318C181.73 19.1544 181.493 19.4858 181.323 19.9261C181.157 20.3617 181.074 20.9015 181.074 21.5455C181.074 22.1894 181.157 22.7339 181.323 23.179C181.493 23.6193 181.73 23.9531 182.033 24.1804C182.336 24.4029 182.689 24.5142 183.091 24.5142C183.413 24.5142 183.697 24.4455 183.944 24.3082C184.194 24.1709 184.4 23.9697 184.561 23.7045C184.722 23.4347 184.824 23.108 184.867 22.7244H188.113C188.079 23.6241 187.855 24.41 187.438 25.0824C187.026 25.7547 186.446 26.2779 185.698 26.652C184.954 27.0213 184.071 27.206 183.049 27.206Z" fill="#157AFF"/>
<path d="M21.9666 19.7668C21.3 19.7668 20.7 19.4002 20.4166 18.8002L18 13.9835L17.3 15.2835C16.9166 16.0002 16.15 16.4502 15.3333 16.4502H14.1166C13.4333 16.4502 12.8666 15.8835 12.8666 15.2002C12.8666 14.5168 13.4333 13.9502 14.1166 13.9502H15.1833L16.5 11.5168C16.8166 10.9502 17.45 10.5668 18.05 10.6002C18.7 10.6002 19.2833 10.9835 19.5833 11.5502L21.9666 16.3168L22.5333 15.1668C22.9166 14.4002 23.6666 13.9335 24.5333 13.9335H25.8833C26.5666 13.9335 27.1333 14.5002 27.1333 15.1835C27.1333 15.8668 26.5666 16.4335 25.8833 16.4335H24.7L23.5166 18.7835C23.2166 19.4002 22.6333 19.7668 21.9666 19.7668Z" fill="#157AFF"/>
<path d="M4.58334 31.0832C3.9 31.0832 3.33334 30.5165 3.33334 29.8332V20.3332C3.25 15.8165 4.93334 11.5498 8.06667 8.34984C11.2 5.1665 15.4 3.4165 19.9167 3.4165C29.15 3.4165 36.6667 10.9332 36.6667 20.1665V29.6665C36.6667 30.3498 36.1 30.9165 35.4167 30.9165C34.7333 30.9165 34.1667 30.3498 34.1667 29.6665V20.1665C34.1667 12.3165 27.7833 5.9165 19.9167 5.9165C16.0667 5.9165 12.5 7.39984 9.85 10.0998C7.18334 12.8165 5.76667 16.4332 5.83334 20.2998V29.8165C5.83334 30.5165 5.28334 31.0832 4.58334 31.0832Z" fill="#157AFF"/>
<path d="M9.89998 20.75H9.68331C6.18331 20.75 3.33331 23.6 3.33331 27.1V30.2333C3.33331 33.7333 6.18331 36.5833 9.68331 36.5833H9.89998C13.4 36.5833 16.25 33.7333 16.25 30.2333V27.1C16.25 23.6 13.4 20.75 9.89998 20.75ZM30.3166 20.75H30.1C26.6 20.75 23.75 23.6 23.75 27.1V30.2333C23.75 33.7333 26.6 36.5833 30.1 36.5833H30.3166C33.8166 36.5833 36.6666 33.7333 36.6666 30.2333V27.1C36.6666 23.6 33.8166 20.75 30.3166 20.75Z" fill="#157AFF"/>
</svg>
