<svg width="24" height="24" viewBox="0 0 24 24" fill="none" xmlns="http://www.w3.org/2000/svg">
<path d="M2 8.34044V15.6604C2 17.1604 3.63 18.1004 4.93 17.3504L8.1 15.5304L11.27 13.7004C11.47 13.5804 11.63 13.4504 11.76 13.2904V10.7304C11.63 10.5704 11.47 10.4404 11.27 10.3204L8.1 8.49044L4.93 6.67044C3.63 5.90044 2 6.84044 2 8.34044ZM11.76 8.34044V15.6604C11.76 17.1604 13.39 18.1004 14.69 17.3504L17.86 15.5304L21.03 13.7004C22.33 12.9504 22.33 11.0804 21.03 10.3204L17.86 8.49044L14.69 6.67044C13.39 5.90044 11.76 6.84044 11.76 8.34044Z" stroke="#FEFFFE" stroke-width="1.5" stroke-linecap="round" stroke-linejoin="round"/>
</svg>
