<svg width="30" height="30" viewBox="0 0 30 30" fill="none" xmlns="http://www.w3.org/2000/svg">
<path d="M7.84995 27.5002C8.8843 27.5002 9.87628 27.0893 10.6077 26.3579C11.3391 25.6265 11.75 24.6345 11.75 23.6002C11.75 22.5658 11.3391 21.5739 10.6077 20.8425C9.87628 20.1111 8.8843 19.7002 7.84995 19.7002C6.81561 19.7002 5.82363 20.1111 5.09223 20.8425C4.36084 21.5739 3.94995 22.5658 3.94995 23.6002C3.94995 24.6345 4.36084 25.6265 5.09223 26.3579C5.82363 27.0893 6.81561 27.5002 7.84995 27.5002Z" stroke="#8E8E8E" stroke-width="1.5" stroke-linecap="round" stroke-linejoin="round"/>
<path d="M26.0502 20.9999V5.74993C26.0502 2.49993 24.0127 2.04993 21.9502 2.61243L14.1502 4.73743C12.7252 5.12493 11.7502 6.24993 11.7502 7.87493V23.5874" stroke="#8E8E8E" stroke-width="1.5" stroke-linecap="round" stroke-linejoin="round"/>
<path d="M11.7502 11.9L26.0502 8M22.1502 24.9C23.1846 24.9 24.1766 24.4891 24.908 23.7577C25.6394 23.0263 26.0502 22.0343 26.0502 21C26.0502 19.9657 25.6394 18.9737 24.908 18.2423C24.1766 17.5109 23.1846 17.1 22.1502 17.1C21.1159 17.1 20.1239 17.5109 19.3925 18.2423C18.6611 18.9737 18.2502 19.9657 18.2502 21C18.2502 22.0343 18.6611 23.0263 19.3925 23.7577C20.1239 24.4891 21.1159 24.9 22.1502 24.9Z" stroke="#8E8E8E" stroke-width="1.5" stroke-linecap="round" stroke-linejoin="round"/>
</svg>
