<svg width="22" height="14" viewBox="0 0 22 14" fill="none" xmlns="http://www.w3.org/2000/svg">
<path d="M21 10.6596V3.33956C21 1.83956 19.37 0.899557 18.07 1.64956L14.9 3.46956L11.73 5.29956C11.53 5.41956 11.37 5.54956 11.24 5.70956V8.26956C11.37 8.42956 11.53 8.55956 11.73 8.67956L14.9 10.5096L18.07 12.3296C19.37 13.0996 21 12.1596 21 10.6596ZM11.24 10.6596L11.24 3.33956C11.24 1.83956 9.61 0.899557 8.31 1.64956L5.14 3.46956L1.97 5.29956C0.669999 6.04956 0.669999 7.91956 1.97 8.67956L5.14 10.5096L8.31 12.3296C9.61 13.0996 11.24 12.1596 11.24 10.6596Z" stroke="#FEFFFE" stroke-width="1.5" stroke-linecap="round" stroke-linejoin="round"/>
</svg>
