<svg width="30" height="30" viewBox="0 0 30 30" fill="none" xmlns="http://www.w3.org/2000/svg">
<path d="M15.1875 20.625V23.25" stroke="#8E8E8E" stroke-width="1.5" stroke-linecap="round" stroke-linejoin="round"/>
<path d="M8.9375 27.5H21.4375V26.25C21.4375 24.875 20.3125 23.75 18.9375 23.75H11.4375C10.0625 23.75 8.9375 24.875 8.9375 26.25V27.5Z" stroke="#8E8E8E" stroke-width="1.5" stroke-miterlimit="10"/>
<path d="M7.6875 27.5H22.6875M15 20C10.1625 20 6.25 16.0875 6.25 11.25V7.5C6.25 4.7375 8.4875 2.5 11.25 2.5H18.75C21.5125 2.5 23.75 4.7375 23.75 7.5V11.25C23.75 16.0875 19.8375 20 15 20Z" stroke="#8E8E8E" stroke-width="1.5" stroke-linecap="round" stroke-linejoin="round"/>
<path d="M6.83755 14.5625C5.90005 14.2625 5.07505 13.7125 4.42505 13.0625C3.30005 11.8125 2.55005 10.3125 2.55005 8.5625C2.55005 6.8125 3.92505 5.4375 5.67505 5.4375H6.48755C6.23755 6.0125 6.11255 6.65 6.11255 7.3125V11.0625C6.11255 12.3125 6.37505 13.4875 6.83755 14.5625ZM23.1626 14.5625C24.1001 14.2625 24.925 13.7125 25.575 13.0625C26.7 11.8125 27.45 10.3125 27.45 8.5625C27.45 6.8125 26.075 5.4375 24.325 5.4375H23.5125C23.7625 6.0125 23.8875 6.65 23.8875 7.3125V11.0625C23.8875 12.3125 23.6251 13.4875 23.1626 14.5625Z" stroke="#8E8E8E" stroke-width="1.5" stroke-linecap="round" stroke-linejoin="round"/>
</svg>
