<svg width="27" height="27" viewBox="0 0 27 27" fill="none" xmlns="http://www.w3.org/2000/svg">
<path d="M26 26L23.5 23.5M12.875 24.75C14.4344 24.75 15.9786 24.4428 17.4194 23.8461C18.8601 23.2493 20.1692 22.3746 21.2719 21.2719C22.3746 20.1692 23.2493 18.8601 23.8461 17.4194C24.4428 15.9786 24.75 14.4344 24.75 12.875C24.75 11.3156 24.4428 9.77138 23.8461 8.33063C23.2493 6.88989 22.3746 5.5808 21.2719 4.47811C20.1692 3.37541 18.8601 2.5007 17.4194 1.90393C15.9786 1.30716 14.4344 1 12.875 1C9.72555 1 6.7051 2.25111 4.47811 4.47811C2.25111 6.7051 1 9.72555 1 12.875C1 16.0244 2.25111 19.0449 4.47811 21.2719C6.7051 23.4989 9.72555 24.75 12.875 24.75Z" stroke="#8E8E8E" stroke-width="1.5" stroke-linecap="round" stroke-linejoin="round"/>
</svg>
