<svg width="30" height="30" viewBox="0 0 30 30" fill="none" xmlns="http://www.w3.org/2000/svg">
<path d="M15 18.75C15.9946 18.75 16.9484 18.3549 17.6517 17.6517C18.3549 16.9484 18.75 15.9946 18.75 15C18.75 14.0054 18.3549 13.0516 17.6517 12.3483C16.9484 11.6451 15.9946 11.25 15 11.25C14.0054 11.25 13.0516 11.6451 12.3483 12.3483C11.6451 13.0516 11.25 14.0054 11.25 15C11.25 15.9946 11.6451 16.9484 12.3483 17.6517C13.0516 18.3549 14.0054 18.75 15 18.75Z" stroke="#8E8E8E" stroke-width="1.5" stroke-miterlimit="10" stroke-linecap="round" stroke-linejoin="round"/>
<path d="M2.49976 16.0998V13.8998C2.49976 12.5998 3.56226 11.5248 4.87476 11.5248C7.13726 11.5248 8.06226 9.9248 6.92476 7.9623C6.27476 6.8373 6.66226 5.3748 7.79976 4.7248L9.96225 3.4873C10.9498 2.8998 12.2248 3.2498 12.8123 4.2373L12.9498 4.4748C14.0748 6.4373 15.9248 6.4373 17.0623 4.4748L17.1998 4.2373C17.7873 3.2498 19.0623 2.8998 20.0498 3.4873L22.2123 4.7248C23.3498 5.3748 23.7373 6.8373 23.0873 7.9623C21.9498 9.9248 22.8748 11.5248 25.1373 11.5248C26.4373 11.5248 27.5123 12.5873 27.5123 13.8998V16.0998C27.5123 17.3998 26.4498 18.4748 25.1373 18.4748C22.8748 18.4748 21.9498 20.0748 23.0873 22.0373C23.7373 23.1748 23.3498 24.6248 22.2123 25.2748L20.0498 26.5123C19.0623 27.0998 17.7873 26.7498 17.1998 25.7623L17.0623 25.5248C15.9373 23.5623 14.0873 23.5623 12.9498 25.5248L12.8123 25.7623C12.2248 26.7498 10.9498 27.0998 9.96225 26.5123L7.79976 25.2748C7.25488 24.9611 6.85673 24.444 6.69269 23.837C6.52864 23.23 6.6121 22.5828 6.92476 22.0373C8.06226 20.0748 7.13726 18.4748 4.87476 18.4748C3.56226 18.4748 2.49976 17.3998 2.49976 16.0998Z" stroke="#8E8E8E" stroke-width="1.5" stroke-miterlimit="10" stroke-linecap="round" stroke-linejoin="round"/>
</svg>
