<svg width="24" height="24" viewBox="0 0 24 24" fill="none" xmlns="http://www.w3.org/2000/svg">
<path d="M3 17.9795L5.55 17.9895C6.46 17.9895 7.31 17.5395 7.81 16.7895L14.2 7.20953C14.4474 6.83758 14.7836 6.53311 15.1782 6.3236C15.5727 6.1141 16.0133 6.00616 16.46 6.00953L21.01 6.02953M19 19.9795L21 17.9795M8.89 8.61953L7.81 7.11953C7.56022 6.76987 7.22987 6.48552 6.84693 6.29057C6.46398 6.09561 6.0397 5.99578 5.61 5.99953L3 6.00953M12.97 15.3795L14.19 16.9495C14.7 17.6095 15.5 17.9995 16.34 17.9995L21.01 17.9795M21 6.01953L19 4.01953" stroke="#FEFFFE" stroke-width="1.5" stroke-linecap="round" stroke-linejoin="round"/>
</svg>
