<svg width="44" height="36" viewBox="0 0 44 36" fill="none" xmlns="http://www.w3.org/2000/svg">
<path d="M14.0003 3.87505H2M8.00016 31.8758H2M4.00005 17.8754H2M28.7807 4.29506L31.6008 9.93522C31.9808 10.7152 33.0009 11.4553 33.8609 11.6153L38.961 12.4553C42.2211 12.9953 42.9811 15.3554 40.6411 17.7154L36.661 21.6955C36.0009 22.3556 35.6209 23.6556 35.8409 24.5956L36.981 29.5158C37.881 33.3959 35.8009 34.9159 32.3808 32.8758L27.6007 30.0358C26.7407 29.5158 25.3006 29.5158 24.4406 30.0358L19.6605 32.8758C16.2404 34.8959 14.1603 33.3959 15.0604 29.5158L16.2004 24.5956C16.4204 23.6756 16.0404 22.3756 15.3804 21.6955L11.4003 17.7154C9.06019 15.3754 9.82021 13.0153 13.0803 12.4553L18.1804 11.6153C19.0405 11.4753 20.0605 10.7152 20.4405 9.93522L23.2606 4.29506C24.7606 1.23498 27.2407 1.23498 28.7807 4.29506Z" stroke="#2B303A" stroke-width="3" stroke-linecap="round" stroke-linejoin="round"/>
</svg>
