<svg width="30" height="30" viewBox="0 0 30 30" fill="none" xmlns="http://www.w3.org/2000/svg">
<path d="M7.49976 5.625H22.4998M11.2498 2.5H18.7498M21.2498 27.5H8.74976C4.99976 27.5 2.49976 25.625 2.49976 21.25V15C2.49976 10.625 4.99976 8.75 8.74976 8.75H21.2498C24.9998 8.75 27.4998 10.625 27.4998 15V21.25C27.4998 25.625 24.9998 27.5 21.2498 27.5Z" stroke="#8E8E8E" stroke-width="1.5" stroke-miterlimit="10" stroke-linecap="round" stroke-linejoin="round"/>
<path d="M11.1125 23.8879C11.5667 23.8879 12.0023 23.7075 12.3234 23.3863C12.6446 23.0652 12.825 22.6296 12.825 22.1754C12.825 21.7212 12.6446 21.2856 12.3234 20.9645C12.0023 20.6433 11.5667 20.4629 11.1125 20.4629C10.6583 20.4629 10.2228 20.6433 9.9016 20.9645C9.58045 21.2856 9.40002 21.7212 9.40002 22.1754C9.40002 22.6296 9.58045 23.0652 9.9016 23.3863C10.2228 23.7075 10.6583 23.8879 11.1125 23.8879Z" stroke="#8E8E8E" stroke-width="1.5" stroke-linecap="round" stroke-linejoin="round"/>
<path d="M19.0997 21.037V14.3495C19.0997 12.9245 18.2122 12.7245 17.2997 12.9745L13.8747 13.912C13.2497 14.087 12.8247 14.5745 12.8247 15.287V22.1745" stroke="#8E8E8E" stroke-width="1.5" stroke-linecap="round" stroke-linejoin="round"/>
<path d="M12.8247 17.2877L19.0997 15.5752M17.3872 22.7502C17.8414 22.7502 18.277 22.5698 18.5981 22.2486C18.9193 21.9275 19.0997 21.4919 19.0997 21.0377C19.0997 20.5835 18.9193 20.1479 18.5981 19.8268C18.277 19.5056 17.8414 19.3252 17.3872 19.3252C16.933 19.3252 16.4974 19.5056 16.1763 19.8268C15.8551 20.1479 15.6747 20.5835 15.6747 21.0377C15.6747 21.4919 15.8551 21.9275 16.1763 22.2486C16.4974 22.5698 16.933 22.7502 17.3872 22.7502Z" stroke="#8E8E8E" stroke-width="1.5" stroke-linecap="round" stroke-linejoin="round"/>
</svg>
