<svg width="30" height="30" viewBox="0 0 30 30" fill="none" xmlns="http://www.w3.org/2000/svg">
<path fill-rule="evenodd" clip-rule="evenodd" d="M27.1875 0H2.8125C1.26563 0 0 1.26562 0 2.8125V27.1875C0 28.7344 1.26563 30 2.8125 30H27.1875C28.7343 30 30 28.7344 30 27.1875V2.8125C30 1.26562 28.7343 0 27.1875 0ZM24.3777 9.18445C23.6769 9.49597 22.9327 9.69907 22.1708 9.7868C22.9637 9.31402 23.5721 8.55773 23.8628 7.65806C23.1193 8.09822 22.2938 8.42152 21.4212 8.59369C20.7158 7.84744 19.7176 7.38291 18.6114 7.38291C16.4865 7.38291 14.7658 9.10252 14.7658 11.2274C14.7658 11.5253 14.7979 11.8192 14.8638 12.1027C11.6676 11.9394 8.83345 10.4092 6.93497 8.08158C6.59353 8.6687 6.41359 9.33575 6.41344 10.0149C6.41344 11.3492 7.09111 12.5285 8.12367 13.2145C7.4925 13.1962 6.90173 13.0218 6.37964 12.7361V12.7849C6.37964 14.6484 7.7062 16.2053 9.46683 16.5574C9.13635 16.6469 8.79547 16.6924 8.45306 16.6925C8.20505 16.6925 7.96533 16.6681 7.72781 16.6233C8.2178 18.1508 9.63624 19.2647 11.3204 19.2952C10.0016 20.3283 8.34511 20.9434 6.54131 20.9434C6.22959 20.9434 5.92566 20.9251 5.62228 20.8897C7.32806 21.9848 9.34997 22.617 11.5225 22.617C18.5976 22.617 22.4682 16.755 22.4682 11.672C22.4682 11.5031 22.4654 11.3382 22.4571 11.1726C23.2084 10.6356 23.8617 9.95681 24.3755 9.18614L24.3777 9.18445Z" fill="#157AFF"/>
</svg>
