<svg width="30" height="30" viewBox="0 0 30 30" fill="none" xmlns="http://www.w3.org/2000/svg">
<path d="M15.6623 25.5251H7.76226C3.81226 25.5251 2.49976 22.9001 2.49976 20.2626V9.7376C2.49976 5.7876 3.81226 4.4751 7.76226 4.4751H15.6623C19.6123 4.4751 20.9248 5.7876 20.9248 9.7376V20.2626C20.9248 24.2126 19.5998 25.5251 15.6623 25.5251Z" stroke="#8E8E8E" stroke-width="1.5" stroke-linecap="round" stroke-linejoin="round"/>
<path d="M24.4002 21.3752L20.9252 18.9377V11.0502L24.4002 8.61266C26.1002 7.42516 27.5002 8.15016 27.5002 10.2377V19.7627C27.5002 21.8502 26.1002 22.5752 24.4002 21.3752ZM14.3752 13.7502C14.8725 13.7502 15.3494 13.5526 15.7011 13.201C16.0527 12.8494 16.2502 12.3724 16.2502 11.8752C16.2502 11.3779 16.0527 10.901 15.7011 10.5493C15.3494 10.1977 14.8725 10.0002 14.3752 10.0002C13.878 10.0002 13.401 10.1977 13.0494 10.5493C12.6978 10.901 12.5002 11.3779 12.5002 11.8752C12.5002 12.3724 12.6978 12.8494 13.0494 13.201C13.401 13.5526 13.878 13.7502 14.3752 13.7502Z" stroke="#8E8E8E" stroke-width="1.5" stroke-linecap="round" stroke-linejoin="round"/>
</svg>
