<svg width="30" height="30" viewBox="0 0 30 30" fill="none" xmlns="http://www.w3.org/2000/svg">
<path fill-rule="evenodd" clip-rule="evenodd" d="M27.1875 0H2.8125C1.26563 0 0 1.26562 0 2.8125V27.1875C0 28.7344 1.26563 30 2.8125 30H27.1875C28.7343 30 30 28.7344 30 27.1875V2.8125C30 1.26562 28.7343 0 27.1875 0ZM22.1786 7.77544C20.2724 5.86538 17.7383 4.81453 15.0376 4.81453C9.47569 4.81453 4.94906 9.34228 4.94906 14.9081C4.94906 16.687 5.41411 18.4254 6.29775 19.954L4.86384 25.1855L10.2159 23.7825C11.692 24.5858 13.3513 25.0111 15.0376 25.0111H15.041C20.6035 25.0111 25.1356 20.4828 25.1356 14.918C25.1356 12.219 24.0859 9.68494 22.1786 7.77595V7.77544ZM15.0409 23.308C13.5323 23.308 12.0568 22.9016 10.769 22.1371L10.4617 21.9544L7.28545 22.7876L8.13361 19.6911L7.93594 19.3727C7.08938 18.04 6.65039 16.497 6.65039 14.9092C6.65039 10.2824 10.4135 6.51591 15.0454 6.51591C17.2849 6.51591 19.3959 7.39233 20.9788 8.97577C22.5606 10.5614 23.4331 12.668 23.4331 14.912C23.4287 19.5427 19.6644 23.307 15.0409 23.307V23.308ZM19.6412 17.0213C19.3909 16.8945 18.1491 16.2878 17.9183 16.2025C17.689 16.1161 17.5191 16.0735 17.348 16.3287C17.183 16.5801 16.6974 17.1509 16.5496 17.3203C16.4024 17.487 16.2562 17.5097 16.0054 17.3835C15.7535 17.2572 14.9374 16.9892 13.9751 16.1311C13.2261 15.4612 12.7195 14.634 12.5711 14.3832C12.4222 14.1341 12.555 13.9923 12.6829 13.8711C12.7992 13.7581 12.9348 13.576 13.0621 13.4287C13.1901 13.2815 13.2288 13.1785 13.313 13.0068C13.396 12.8408 13.3551 12.694 13.2919 12.5656C13.2288 12.4394 12.7223 11.1959 12.5174 10.6909C12.3142 10.1976 12.1038 10.2662 11.9483 10.2563C11.7998 10.2502 11.6343 10.2502 11.466 10.2502C11.2999 10.2502 11.0264 10.3128 10.7933 10.5658C10.5624 10.8155 9.91083 11.4273 9.91083 12.6691C9.91083 13.911 10.8121 15.1085 10.9401 15.2796C11.0685 15.4468 12.7194 17.9963 15.2491 19.0886C15.8509 19.3461 16.3204 19.5011 16.6853 19.6196C17.291 19.8123 17.8391 19.7841 18.2737 19.7198C18.7575 19.6484 19.7652 19.1114 19.9762 18.5212C20.1882 17.9315 20.1882 17.4288 20.124 17.3242C20.0636 17.2118 19.8981 17.1509 19.6418 17.0208L19.6412 17.0213Z" fill="#157AFF"/>
</svg>
